/vscmnt/brussel_pixiu_data/_data_brussel/112/vsc11236/PredSimResults/SUBJ07mtu3D/worker6.mot
version=1
nRows=9
nColumns=50
inDegrees=yes
endheader
                time	         pelvis_tilt	         pelvis_list	     pelvis_rotation	           pelvis_tx	           pelvis_ty	           pelvis_tz	       hip_flexion_r	     hip_adduction_r	      hip_rotation_r	        knee_angle_r	       ankle_angle_r	         mtp_angle_r	       hip_flexion_l	     hip_adduction_l	      hip_rotation_l	        knee_angle_l	       ankle_angle_l	         mtp_angle_l	    lumbar_extension	      lumbar_bending	     lumbar_rotation	 ercspn_r/activation	 intobl_r/activation	 extobl_r/activation	    abd_r/activation	    add_r/activation	hamstrings_r/activation	bifemsh_r/activation	glut_max_r/activation	iliopsoas_r/activation	rect_fem_r/activation	  vasti_r/activation	gastroc_r/activation	 soleus_r/activation	tib_ant_r/activation	 ercspn_l/activation	 intobl_l/activation	 extobl_l/activation	    abd_l/activation	    add_l/activation	hamstrings_l/activation	bifemsh_l/activation	glut_max_l/activation	iliopsoas_l/activation	rect_fem_l/activation	  vasti_l/activation	gastroc_l/activation	 soleus_l/activation	tib_ant_l/activation	
          1.10724100	         -2.96966740	         -0.02764718	          8.14702465	          1.35083402	          0.85085385	         -0.01335943	         28.89478302	         -2.30576747	         -4.04168596	         -6.76884429	          3.32009225	          0.26613609	        -15.71360322	         -0.04280484	          3.19395283	         -8.78910401	          8.18132018	         27.59789268	        -11.27900384	         -1.53820857	         -1.31869838	          0.12398353	          0.13534402	          0.01000005	          0.01342687	          0.13789524	          0.07048385	          0.11368555	          0.08311954	          0.03128150	          0.01184529	          0.01000001	          0.01000004	          0.01000003	          0.37582187	          0.12729345	          0.01000001	          0.01000001	          0.03272263	          0.01152835	          0.01745139	          0.15062321	          0.01662077	          0.19490587	          0.01184533	          0.01000017	          0.12870620	          0.28065808	          0.01968787	
          1.11831341	         -2.98086605	          0.00648729	          8.15577731	          1.36658207	          0.84940138	         -0.01302660	         28.64318172	         -2.09001971	         -3.68508736	         -8.18898337	          3.02200573	          0.24998303	        -16.12857493	         -0.12409851	          2.85574197	         -9.90657264	          7.22612033	         29.19830587	        -11.17190457	         -1.13467632	         -1.54512512	          0.10466808	          0.12265734	          0.01000000	          0.01265080	          0.11641248	          0.06710102	          0.12276217	          0.12944081	          0.02640814	          0.01000002	          0.01000000	          0.01403194	          0.01184540	          0.41379540	          0.14170284	          0.01000000	          0.01000005	          0.02762475	          0.02541542	          0.01473340	          0.12715756	          0.01403142	          0.16454142	          0.01000003	          0.01000000	          0.10865499	          0.26159212	          0.01662069	
          1.12938582	         -2.98481026	          0.04670395	          8.11514772	          1.38248407	          0.84816268	         -0.01260280	         28.31527179	         -1.92731488	         -3.35309436	         -9.49988518	          2.60773326	          0.24572791	        -16.40510027	         -0.18746018	          2.47523362	        -11.29146975	          6.15138034	         30.73884039	        -11.06015631	         -0.73831922	         -1.76400069	          0.13962213	          0.10354849	          0.01000001	          0.10044561	          0.13734128	          0.06209592	          0.10363812	          0.12280607	          0.02229400	          0.01000001	          0.00999999	          0.01184590	          0.01000000	          0.47061838	          0.15668228	          0.01000000	          0.01000001	          0.02332108	          0.02145598	          0.01243951	          0.10734762	          0.01184547	          0.13890746	          0.01000015	          0.01000003	          0.09172757	          0.23954683	          0.01403134	
          1.14045823	         -2.98290665	          0.10766447	          8.02985470	          1.39835344	          0.84729902	         -0.01208186	         27.99500851	         -1.78583280	         -3.08154473	        -10.81065368	          2.15855810	          0.22694641	        -16.46318401	         -0.21824140	          2.06703422	        -13.05457440	          4.93578788	         32.15937040	        -10.96345853	         -0.36516595	         -1.97446093	          0.14931472	          0.08741662	          0.01000000	          0.14717283	          0.16550501	          0.05360923	          0.08749230	          0.14551346	          0.01882081	          0.01000002	          0.01000001	          0.01000043	          0.01000000	          0.49688950	          0.19203255	          0.01000000	          0.01000001	          0.01968787	          0.02876731	          0.01275390	          0.09062389	          0.01000007	          0.11726702	          0.01000011	          0.01000002	          0.07743728	          0.20510692	          0.01184539	
          1.15153064	         -2.97512969	          0.18227857	          7.90473435	          1.41405928	          0.84693485	         -0.01147301	         27.73645061	         -1.65369789	         -2.85371877	        -12.25915549	          1.92947336	          0.20858201	        -16.23067710	         -0.22454276	          1.63346682	        -15.30151542	          3.60209944	         33.30942209	        -10.88906191	         -0.00865448	         -2.17403799	          0.15765952	          0.07379794	          0.01000000	          0.18519061	          0.19065213	          0.04992280	          0.07386184	          0.16489738	          0.01588871	          0.01000002	          0.02545115	          0.01000002	          0.01000001	          0.49976614	          0.22666949	          0.01000000	          0.01000001	          0.01662069	          0.05180031	          0.01310630	          0.07650556	          0.01000001	          0.09899794	          0.01000005	          0.01000000	          0.06537328	          0.17315320	          0.01000000	
          1.16260305	         -2.96271482	          0.26764773	          7.74069997	          1.42950457	          0.84718489	         -0.01079242	         27.51967870	         -1.53065172	         -2.67228806	        -13.79228229	          1.93584321	          0.19039734	        -15.63937626	         -0.21017223	          1.16340075	        -18.12800847	          2.16772414	         33.97948733	        -10.83946046	          0.33243983	         -2.35926352	          0.16265805	          0.06230092	          0.01000000	          0.20506138	          0.21262014	          0.04911486	          0.06235489	          0.17274543	          0.01341340	          0.01000002	          0.05213623	          0.01000004	          0.01000001	          0.48194273	          0.24976435	          0.01000000	          0.01000001	          0.01403134	          0.08317930	          0.01412515	          0.06458673	          0.01000000	          0.08357501	          0.01000004	          0.01000000	          0.05518875	          0.14617757	          0.01000000	
          1.17367546	         -2.94721193	          0.36272293	          7.53798307	          1.44466179	          0.84809141	         -0.01006014	         27.26657727	         -1.41256607	         -2.52500921	        -15.25690468	          2.15717747	          0.17636235	        -14.64566303	         -0.18201751	          0.65687579	        -21.58308584	          0.59956021	         34.00073318	        -10.80950174	          0.65795782	         -2.52619772	          0.15924743	          0.05259503	          0.01000000	          0.20884218	          0.22335710	          0.04926137	          0.05264061	          0.17360622	          0.01132372	          0.01000002	          0.07139988	          0.01000003	          0.01000000	          0.44966982	          0.25689077	          0.01000000	          0.01000001	          0.01184539	          0.10842930	          0.01487588	          0.05452475	          0.01000000	          0.07055482	          0.01000002	          0.00999999	          0.04659086	          0.12340448	          0.00999999	
          1.18474787	         -2.93016092	          0.46356437	          7.29724516	          1.45953526	          0.84959971	         -0.00928734	         26.90880236	         -1.29128601	         -2.38847730	        -16.51903874	          2.55166690	          0.17527294	        -13.24225965	         -0.15320377	          0.14001817	        -25.61770413	         -1.26009163	         33.38279097	        -10.79292371	          0.97011800	         -2.67159847	          0.13443825	          0.04440122	          0.01000000	          0.20061599	          0.22255937	          0.05432231	          0.04443974	          0.16264962	          0.01000001	          0.01000002	          0.09633041	          0.01000003	          0.01000000	          0.40643580	          0.26315357	          0.01000000	          0.01000001	          0.00999999	          0.12577360	          0.01267277	          0.04603034	          0.01000000	          0.05956305	          0.01000002	          0.00999999	          0.03933245	          0.10417923	          0.01000000	
          1.19582028	         -2.91356567	          0.56616693	          7.01890670	          1.47411265	          0.85161170	         -0.00847041	         26.39890594	         -1.15722013	         -2.22779648	        -17.47565483	          3.06178177	          0.20762233	        -11.45341553	         -0.13205815	         -0.34481592	        -30.11736407	         -3.47860600	         32.00283107	        -10.78949143	          1.26803299	         -2.79544228	          0.11349405	          0.03748393	          0.01000000	          0.20078998	          0.20784576	          0.06356856	          0.03751649	          0.13731039	          0.01000001	          0.01000001	          0.12345410	          0.01000003	          0.01000000	          0.36339587	          0.25586618	          0.01000000	          0.01000001	          0.00999999	          0.13852196	          0.01182166	          0.03885927	          0.01000000	          0.05028370	          0.01000001	          0.00999999	          0.03320482	          0.08794909	          0.03926380	
